<?xml version="1.0" encoding="UTF-8"?>
<svg xmlns="http://www.w3.org/2000/svg" style="display:none">
  <!-- Placeholder, open-source friendly sprite icons.
       Replace paths with your licensed SVGs if desired. -->

  <symbol id="IconDogPortrait" viewBox="0 0 24 24" fill="currentColor">
    <path d="M12 2c2.1 0 3.9 1.3 4.6 3.2l2 .8a2 2 0 0 1 1.3 2.5l-.5 1.5a3 3 0 0 1-2.9 2h-1V14a5 5 0 1 1-10 0v-2H5a3 3 0 0 1-2.9-2l-.5-1.5A2 2 0 0 1 2.9 6l2-.8A5 5 0 0 1 12 2zm-3 9a1 1 0 1 0 0-2 1 1 0 0 0 0 2zm6 0a1 1 0 1 0 0-2 1 1 0 0 0 0 2z"/>
  </symbol>

  <symbol id="IconCatPortrait" viewBox="0 0 24 24" fill="currentColor">
    <path d="M6 3l3 3h6l3-3v5a5 5 0 0 1-5 5h-2A5 5 0 0 1 6 8V3zm3 12a3 3 0 0 0 6 0v-1H9v1zm-2 3h10v2H7v-2z"/>
  </symbol>

  <symbol id="IconPawOutline" viewBox="0 0 24 24" fill="currentColor">
    <path d="M7.5 8.5a2.5 2.5 0 1 1 0-5 2.5 2.5 0 0 1 0 5zm9 0a2.5 2.5 0 1 1 0-5 2.5 2.5 0 0 1 0 5zM4.5 14.5a2.5 2.5 0 1 1 0-5 2.5 2.5 0 0 1 0 5zm15 0a2.5 2.5 0 1 1 0-5 2.5 2.5 0 0 1 0 5zM12 13c2.8 0 6 1.7 6 4.5 0 1.4-1.1 2.5-2.5 2.5H8.5A2.5 2.5 0 0 1 6 17.5C6 14.7 9.2 13 12 13z"/>
  </symbol>

  <symbol id="IconSheltersRescues" viewBox="0 0 24 24" fill="currentColor">
    <path d="M12 3l9 6v12h-6v-6H9v6H3V9l9-6z"/>
  </symbol>
</svg>

