<?xml version="1.0" standalone="no"?>
<!DOCTYPE svg PUBLIC "-//W3C//DTD SVG 20010904//EN"
 "http://www.w3.org/TR/2001/REC-SVG-20010904/DTD/svg10.dtd">
<svg version="1.0" xmlns="http://www.w3.org/2000/svg"
 width="521.000000pt" height="95.000000pt" viewBox="0 0 521.000000 95.000000"
 preserveAspectRatio="xMidYMid meet">

<g transform="translate(0.000000,95.000000) scale(0.100000,-0.100000)"
fill="#FF5A5F" stroke="none">
<path d="M4390 873 c-44 -72 -101 -254 -108 -345 l-5 -77 -44 -7 c-42 -6 -61
-22 -49 -42 3 -5 28 -6 56 -2 47 6 53 5 60 -14 7 -19 2 -22 -54 -31 -48 -8
-61 -14 -61 -27 0 -23 -3 -22 78 -14 l67 8 55 -50 c168 -154 483 -145 641 17
32 32 32 33 93 23 45 -6 64 -6 71 3 15 18 -7 32 -62 40 -27 4 -48 10 -48 14 1
22 21 32 56 30 74 -5 81 32 9 45 -34 7 -35 8 -35 57 0 27 -9 89 -21 137 -23
96 -101 270 -125 279 -10 4 -33 -11 -63 -42 l-48 -47 -163 0 -163 0 -46 46
c-26 25 -50 46 -54 46 -4 0 -20 -21 -37 -47z m592 -65 c52 -107 94 -278 81
-328 -5 -19 -10 -21 -59 -14 -50 6 -54 5 -54 -14 0 -17 8 -22 38 -27 60 -10
64 -13 53 -32 -7 -13 -20 -17 -50 -14 -36 2 -41 0 -41 -18 0 -14 9 -23 26 -27
l25 -6 -21 -23 c-113 -120 -424 -126 -556 -11 -33 29 -36 35 -21 41 9 4 17 16
17 26 0 15 -7 19 -35 19 -19 0 -35 2 -35 4 0 2 -2 11 -6 19 -4 10 6 16 35 21
33 5 41 10 41 27 0 20 -4 21 -50 15 -59 -8 -58 -10 -36 108 20 103 52 204 76
244 l21 34 35 -31 c19 -17 40 -31 47 -32 7 -1 88 -2 180 -3 l169 -3 39 29 c21
15 39 33 39 38 0 25 19 6 42 -42z"/>
<path d="M4500 571 c-16 -31 4 -63 37 -59 34 4 52 32 37 56 -16 26 -60 28 -74
3z"/>
<path d="M4822 578 c-27 -27 -6 -68 35 -68 29 0 48 33 33 60 -12 22 -49 27
-68 8z"/>
<path d="M4644 460 c-33 -13 -36 -25 -13 -54 37 -46 56 -51 95 -21 19 14 34
35 34 46 0 32 -67 49 -116 29z"/>
<path d="M835 860 c3 -5 15 -10 26 -10 18 0 19 -8 19 -120 l0 -120 -25 16
c-34 22 -135 15 -173 -12 -49 -36 -67 -88 -66 -189 1 -158 51 -214 186 -207
14 1 40 13 57 27 l30 26 3 -23 c3 -22 8 -23 101 -26 62 -2 97 1 97 8 0 5 -9
10 -20 10 -20 0 -20 7 -20 315 l0 315 -111 0 c-71 0 -108 -4 -104 -10z m38
-274 c13 -23 17 -244 5 -286 -9 -30 -41 -52 -63 -43 -27 10 -35 49 -35 173 0
114 9 167 32 181 17 11 48 -2 61 -25z"/>
<path d="M175 535 c-87 -235 -113 -295 -127 -295 -10 0 -18 -4 -18 -10 0 -6
28 -10 65 -10 37 0 65 4 65 10 0 6 -13 10 -30 10 -16 0 -30 4 -30 9 0 6 14 48
31 95 l31 86 83 0 83 0 28 -82 c15 -46 29 -89 32 -95 3 -9 -6 -13 -27 -13 -17
0 -31 -4 -31 -10 0 -6 53 -10 140 -10 87 0 140 4 140 10 0 6 -8 10 -18 10 -13
0 -29 31 -66 133 -27 72 -75 205 -108 295 l-60 162 -37 0 -37 0 -109 -295z
m113 16 c18 -51 29 -98 26 -102 -7 -11 -131 -12 -138 -1 -7 11 67 213 75 204
4 -4 20 -49 37 -101z"/>
<path d="M2750 820 c0 -5 9 -10 19 -10 18 0 19 -12 23 -222 3 -209 4 -226 26
-270 37 -74 96 -101 222 -100 111 0 163 25 192 89 20 44 22 69 26 276 4 214 5
227 23 227 11 0 19 5 19 10 0 6 -27 10 -60 10 -33 0 -60 -4 -60 -10 0 -5 11
-10 25 -10 l25 0 0 -227 c0 -250 -5 -274 -62 -317 -39 -28 -117 -28 -155 0
-44 33 -51 77 -52 322 l-1 222 30 0 c17 0 30 5 30 10 0 6 -52 10 -135 10 -83
0 -135 -4 -135 -10z"/>
<path d="M2193 762 l-63 -15 0 -59 c0 -56 -1 -58 -27 -59 l-28 -1 25 -7 25 -7
5 -164 c3 -91 10 -173 14 -183 13 -28 63 -48 120 -50 86 -2 126 24 146 95 5
15 5 30 0 33 -4 2 -10 -8 -13 -24 -7 -34 -43 -71 -69 -71 -31 0 -38 35 -38
204 l0 165 58 4 57 3 -57 2 -58 2 0 75 c0 86 5 83 -97 57z"/>
<path d="M1224 615 c-68 -34 -95 -78 -102 -164 -5 -78 8 -127 46 -173 36 -43
81 -59 169 -59 147 -1 214 65 214 212 0 78 -16 132 -48 161 -59 54 -195 65
-279 23z m140 0 c22 -22 29 -87 25 -228 -4 -129 -13 -157 -50 -157 -31 0 -50
44 -56 128 -8 116 5 230 28 253 23 23 33 24 53 4z"/>
<path d="M1850 633 c-8 -3 -27 -17 -42 -31 l-28 -26 0 27 0 27 -102 -1 c-58
-1 -92 -4 -78 -8 l25 -7 0 -289 0 -289 -25 -7 c-14 -4 49 -7 140 -6 91 0 139
2 108 4 l-58 4 0 105 c0 104 0 105 22 93 33 -18 123 -13 165 8 58 31 78 79 78
193 -1 114 -22 167 -79 194 -33 15 -95 20 -126 9z m30 -52 c15 -29 13 -280 -3
-311 -16 -33 -41 -36 -67 -10 -20 20 -21 30 -18 160 3 119 6 141 22 159 24 26
52 27 66 2z"/>
<path d="M3410 622 c-41 -20 -70 -71 -70 -124 0 -78 35 -111 159 -148 78 -23
96 -39 87 -75 -12 -47 -107 -53 -172 -10 -13 8 -35 37 -48 63 l-25 47 -1 -84
c0 -84 0 -84 20 -66 18 16 25 17 63 5 57 -17 138 -15 176 4 45 24 65 60 65
121 1 89 -30 122 -151 158 -75 22 -93 34 -93 62 0 30 26 45 81 45 35 0 47 -6
78 -38 20 -20 41 -46 48 -57 10 -17 12 -9 12 48 1 64 0 67 -18 55 -15 -9 -28
-9 -59 0 -56 17 -111 15 -152 -6z"/>
</g>
</svg>
